# xmcd
#
# Track frame offsets:
#	150
#	23342
#	41227
#	59992
#	81712
#	111125
#	133778
#	158653
#	183193
#	209453
#	231126
#	255063
#	273533
#	292650
#	314988
#
# Disc length: 4533 seconds
#
# Revision: 0
# Processed by: cddbd v1.5.2PL0 Copyright (c) Steve Scherf et al.
# Submitted via: audiograbber 1.83.01
#
DISCID=da11b30f
DTITLE=Kenny Lattimore - Never Too Busy: The Anthology [CD2]
DYEAR=2018
DGENRE=Soul
TTITLE0=Now and Then - Maniquin
TTITLE1=For You
TTITLE2=Forgiveness
TTITLE3=Forever
TTITLE4=I Love You More Than You'll Ever Know
TTITLE5=If You Could See You (Through My Eyes)
TTITLE6=While My Guitar Gently Weeps
TTITLE7=If I Lose My Woman
TTITLE8=Heaven and Earth
TTITLE9=Make Believe
TTITLE10=Days Like This
TTITLE11=Beautiful Girl
TTITLE12=Who
TTITLE13=River (w Peter White)
TTITLE14=Never Too Busy (Quiet Storm Mix)
EXTD=
EXTT0=
EXTT1=
EXTT2=
EXTT3=
EXTT4=
EXTT5=
EXTT6=
EXTT7=
EXTT8=
EXTT9=
EXTT10=
EXTT11=
EXTT12=
EXTT13=
EXTT14=
PLAYORDER=
